<svg id="Capa_1" data-name="Capa 1" xmlns="http://www.w3.org/2000/svg" xmlns:xlink="http://www.w3.org/1999/xlink" viewBox="0 0 1080 1080"><defs><style>.cls-1{fill:#010101;}.cls-2{fill:url(#Degradado_sin_nombre_35);}.cls-3{fill:url(#Degradado_sin_nombre_35-2);}.cls-4{fill:url(#Degradado_sin_nombre_74);}.cls-5{fill:url(#Degradado_sin_nombre_22);}.cls-6{fill:url(#Degradado_sin_nombre_27);}</style><linearGradient id="Degradado_sin_nombre_35" x1="245.03" y1="602.57" x2="461.8" y2="819.34" gradientUnits="userSpaceOnUse"><stop offset="0" stop-color="#ab71ae"/><stop offset="0.34" stop-color="#8685bf"/><stop offset="0.67" stop-color="#54a5dc"/><stop offset="1" stop-color="#29bce9"/></linearGradient><linearGradient id="Degradado_sin_nombre_35-2" x1="720.41" y1="569.05" x2="720.41" y2="837.92" xlink:href="#Degradado_sin_nombre_35"/><linearGradient id="Degradado_sin_nombre_74" x1="381.66" y1="360.29" x2="704.01" y2="360.29" gradientUnits="userSpaceOnUse"><stop offset="0" stop-color="#ab71ae"/><stop offset="0.28" stop-color="#db5d81"/><stop offset="0.51" stop-color="#ea526f"/><stop offset="0.71" stop-color="#de5c9c"/><stop offset="1" stop-color="#8685bf"/></linearGradient><linearGradient id="Degradado_sin_nombre_22" x1="540" y1="55.84" x2="540" y2="1024.16" gradientUnits="userSpaceOnUse"><stop offset="0" stop-color="#ea526f"/><stop offset="0.24" stop-color="#de5c9c"/><stop offset="0.44" stop-color="#ab71ae"/><stop offset="0.63" stop-color="#8685bf"/><stop offset="0.82" stop-color="#54a5dc"/><stop offset="1" stop-color="#29bce9"/></linearGradient><linearGradient id="Degradado_sin_nombre_27" x1="540" y1="521.81" x2="540" y2="666.64" gradientUnits="userSpaceOnUse"><stop offset="0" stop-color="#de5c9c"/><stop offset="0.27" stop-color="#ab71ae"/><stop offset="0.78" stop-color="#8685bf"/><stop offset="1" stop-color="#54a5dc"/></linearGradient></defs><path class="cls-1" d="M616.55,645.57a.21.21,0,0,1,.05-.13"/><path class="cls-2" d="M446.86,825.94a109.27,109.27,0,0,1-11,0c-3.59-.31-7.26-.57-10.82-1.17-1.79-.28-3.59-.55-5.36-.91l-2.68-.52-2.65-.6c-3.52-.84-7-1.77-10.51-2.85a166.79,166.79,0,0,1-39.57-18.49,181.62,181.62,0,0,1-34.08-28A195.6,195.6,0,0,1,303.35,738c-15.16-25.51-24.6-54.55-26.45-83.9a165.84,165.84,0,0,1,2.79-43.58l1.16-5.32c.42-1.76.86-3.51,1.39-5.26l1.52-5.2c.51-1.73,1.14-3.44,1.76-5.14a105,105,0,0,1,9.4-19.72l3.48.34c-.45,6.53-.66,13.07-.67,19.61,0,1.63,0,3.26.06,4.9l.19,4.89c.07,1.63.11,3.27.2,4.9l.38,4.88A249.77,249.77,0,0,0,304.41,648a258.15,258.15,0,0,0,11.65,37.22,246.94,246.94,0,0,0,17.37,34.88,254.9,254.9,0,0,0,80.49,83.68c5.44,3.61,11.07,6.93,16.78,10.1,2.85,1.6,5.79,3,8.69,4.55s5.89,2.84,8.84,4.27Z"/><path class="cls-3" d="M785.14,570.53a101.89,101.89,0,0,1,9.39,19.32c1.32,3.34,2.27,6.72,3.3,10.14.53,1.71,1,3.43,1.39,5.16l1.17,5.2a162.48,162.48,0,0,1,3,42.73c-1.64,28.77-10.64,57.29-25.29,82.4a193.61,193.61,0,0,1-25.94,34.9c-2.43,2.68-5.06,5.18-7.64,7.71s-5.37,4.86-8.06,7.25c-1.39,1.16-2.81,2.27-4.22,3.4S729.5,791,728,792.06c-3,2.09-5.8,4.26-8.85,6.17a164,164,0,0,1-38.52,18.69,141.94,141.94,0,0,1-20.7,5.13c-3.48.65-7.09,1-10.6,1.32a107.9,107.9,0,0,1-10.8.21l-1.45-3.19a263.7,263.7,0,0,0,33.18-19.27,255.33,255.33,0,0,0,77.6-83.21,246.09,246.09,0,0,0,16.71-34.32,257.88,257.88,0,0,0,11.21-36.51,248.57,248.57,0,0,0,5.66-37.84l.36-4.78c.11-1.6.14-3.19.21-4.79l.19-4.8q.06-2.4.06-4.8c0-6.4-.19-12.81-.61-19.21Z"/><path class="cls-4" d="M391,396.19c1.76-3.33,3.74-6.47,5.79-9.6,2.16-3,4.34-6,6.7-8.84,1.19-1.41,2.38-2.84,3.63-4.19s2.47-2.79,3.77-4.08,2.63-2.59,4-3.89,2.67-2.59,4.07-3.8A166.93,166.93,0,0,1,456,337c26.93-13.33,57.46-19.83,87.72-19.38s60.62,7.69,87.17,21.75a167.52,167.52,0,0,1,36.4,25.8c2.65,2.64,5.3,5.2,7.82,7.89s4.89,5.56,7.18,8.45,4.4,6,6.47,9c2,3.19,3.87,6.35,5.55,9.73L692.18,403a262,262,0,0,0-33.93-21.27,246.85,246.85,0,0,0-36.67-15.79A260,260,0,0,0,583,356.12a262.6,262.6,0,0,0-79.42-1c-3.3.4-6.57,1-9.84,1.62s-6.51,1.31-9.76,2-6.46,1.58-9.68,2.41-6.4,1.8-9.59,2.73a247.23,247.23,0,0,0-37.08,14.79c-1.52.69-3,1.49-4.46,2.25l-4.44,2.31c-2.95,1.57-5.81,3.29-8.72,4.93s-5.68,3.52-8.52,5.27L393.09,399Z"/><path class="cls-5" d="M505.26,56.54v-.7c-156.75,16-278.58,141.58-278.58,293.92a269.82,269.82,0,0,0,8.46,67.7,261.86,261.86,0,0,0-62.59,26.45c-134.18,77.4-181.43,250-112.14,395.3l.36-.17A226.51,226.51,0,0,1,211.16,531a229.34,229.34,0,0,1,58.54-7.23c6.17,0,11.81.36,17.81.88A222.58,222.58,0,0,1,339,534.89l.49-.86,1.41-2.49,14.67-25.83,1.48-2.63c1.69-3,3.2-5.67,4.59-8.1,10.82-19,13.69-23,26.85-47.3h0c-.61-.61-24.62-24.72-34.31-38.84a157.88,157.88,0,0,1-9.88-15.7,221.38,221.38,0,0,1-30.5-113A226.12,226.12,0,0,1,505.26,56.54ZM907.62,443.92a265.12,265.12,0,0,0-62.77-26.45,269.84,269.84,0,0,0,8.46-67.71c0-152.33-121.66-277.69-278.4-293.92l-.18.71A226.11,226.11,0,0,1,766.21,280.12a221.34,221.34,0,0,1-30.5,113,158.33,158.33,0,0,1-9.87,15.69c-9.82,14.3-34.26,38.93-34.26,38.93l-.22-.24a208.26,208.26,0,0,0-302.88.12v0L361.63,495c-1.39,2.43-2.9,5.11-4.59,8.1l-16.15,28.46L339.48,534a207.59,207.59,0,0,0-7.8,56.54c0,97.91,67.87,180.24,158.92,202.51,0,0,49.55-81.3,47.46-81.4a124.63,124.63,0,0,1-53.3-15L418.68,714l17.68-64.58A124.67,124.67,0,0,1,632.57,499.05a126,126,0,0,1,16.84,20.87c.08.12,91.38,15.18,91.38,15.18l.21-.21a221.94,221.94,0,0,1,51.48-10.22c6-.53,11.81-.88,17.81-.88a225.89,225.89,0,0,1,208.93,314.9l.53.17C1088.69,693.58,1041.79,521.32,907.62,443.92ZM982.55,898.1A226.15,226.15,0,0,1,613.7,859.84c-2.47-4.41-4.76-9-6.88-13.4A240,240,0,0,1,589.45,793v0l.42-.1c90.93-22.36,158.39-104.45,158.39-202.27A207.53,207.53,0,0,0,691.8,448l-42.16,72.3A124.67,124.67,0,0,1,544.39,711.84h-.06c-2.09,0-4.18-.06-6.27-.16l-47.46,81.4,0,0a238.47,238.47,0,0,1-17.41,53.33c-2.11,4.41-4.41,9-6.7,13.4A226.41,226.41,0,0,1,97.62,898.28l-.71.7c93.27,122.19,259.19,162.21,388.78,87.46A268.4,268.4,0,0,0,540,945.35a273.15,273.15,0,0,0,54.31,41.09c129.77,74.75,295.86,34.73,389-87.81Z"/><path class="cls-6" d="M615.23,647.66c-3.2,9-18.54,17.14-25.92,18.25a52.78,52.78,0,0,1-24.18-1.53,219,219,0,0,1-21.89-8.08c-38.51-16.63-63.67-55.39-65.59-58S462,577.53,462,558.64s9.92-28.18,13.44-32a14.15,14.15,0,0,1,10.24-4.81c2.56,0,5.12,0,7.36.14s5.52-.89,8.64,6.59c3.2,7.69,10.88,26.57,11.83,28.49a7.05,7.05,0,0,1,.33,6.73c-1.28,2.56-5.54,8.09-9.6,13.13-1.71,2.11-3.93,4-1.69,7.83s10,16.41,21.36,26.59c14.67,13.08,27,17.13,30.88,19.05s6.07,1.6,8.32-1,9.59-11.21,12.15-15,5.12-3.2,8.64-1.92,22.4,10.57,26.24,12.49,6.39,2.88,7.35,4.48S618.43,638.69,615.23,647.66Z"/></svg>